# xmcd
#
# Track frame offsets:
#	150
#	14773
#	26316
#	45268
#	59344
#	71509
#	84660
#	93694
#	106289
#	124396
#	137035
#	149788
#	167391
#	179861
#	193609
#	211899
#	231782
#
# Disc length: 3277
#
# Revision: 3
# Processed by: cddbd v1.5.1PL0 Copyright (c) Steve Scherf et al.
# Submitted via: CDex 1.30Release
# Normalized: r1:DSETVAR1,TDELIM( - ),TSWAP
#
DISCID=f90ccb11
DTITLE=Various Artist - This Is The Blues - Disc 2
DYEAR=2002
DGENRE=Blues
TTITLE0=John Lee Hooker - Wondering Blues
TTITLE1=Ray Charles - How Long, How Long Blues
TTITLE2=Howlin' Wolf - Howlin' For My Darlin'
TTITLE3=Muddy Waters - Rollin' Stone
TTITLE4=Jimmy Reed - Where Can You Be
TTITLE5=Bessie Smith - Standin' In The Rain
TTITLE6=Memphis Slim - I'd Take Her To Chicago
TTITLE7=Lonnie Johnson - Love Is The Answer
TTITLE8=Sonny Terry and Brownie McGhee - I'm A Stranger Here
TTITLE9=Sonny Boy Williamson - Little Low Woman Blues
TTITLE10=Dinah Washington - All Or Nothin' Blues
TTITLE11=Joe Turner - Piney Brown Blues
TTITLE12=Captain Jack Dupree - Shim Sham Shimmey
TTITLE13=Lightnin' Hopkins - Mojo Hand
TTITLE14=Charles Brown - Driftin' Blues
TTITLE15=John Mayall - Road Show
TTITLE16=Otis Spann - This Is The Blues
EXTD=YEAR: 2002 ID3G:   0
EXTT0=
EXTT1=
EXTT2=
EXTT3=
EXTT4=
EXTT5=
EXTT6=
EXTT7=
EXTT8=
EXTT9=
EXTT10=
EXTT11=
EXTT12=
EXTT13=
EXTT14=
EXTT15=
EXTT16=
PLAYORDER=
